<mxfile host="app.diagrams.net" modified="2023-03-28T19:04:28.223Z" agent="Mozilla/5.0 (Windows NT 10.0; Win64; x64) AppleWebKit/537.36 (KHTML, like Gecko) Chrome/111.0.0.0 Safari/537.36" etag="3IHwGbsCtGa4pTwU7v3R" version="21.1.1" type="device">
  <diagram id="C5RBs43oDa-KdzZeNtuy" name="Page-1">
    <mxGraphModel dx="1434" dy="792" grid="1" gridSize="10" guides="1" tooltips="1" connect="1" arrows="1" fold="1" page="1" pageScale="1" pageWidth="827" pageHeight="1169" background="#ebebeb" math="0" shadow="0">
      <root>
        <mxCell id="WIyWlLk6GJQsqaUBKTNV-0" />
        <mxCell id="WIyWlLk6GJQsqaUBKTNV-1" parent="WIyWlLk6GJQsqaUBKTNV-0" />
        <mxCell id="yz6hyvaZa-Xoh-KUm_AY-7" value="AbstractProfile" style="swimlane;fontStyle=0;childLayout=stackLayout;horizontal=1;startSize=30;horizontalStack=0;resizeParent=1;resizeParentMax=0;resizeLast=0;collapsible=1;marginBottom=0;whiteSpace=wrap;html=1;fillColor=#21C0A5;strokeColor=#006658;labelBackgroundColor=none;fontColor=#5C5C5C;rounded=1;" parent="WIyWlLk6GJQsqaUBKTNV-1" vertex="1">
          <mxGeometry x="40" y="20" width="170" height="330" as="geometry" />
        </mxCell>
        <mxCell id="yz6hyvaZa-Xoh-KUm_AY-9" value="Image (img)" style="text;strokeColor=none;fillColor=none;align=left;verticalAlign=middle;spacingLeft=4;spacingRight=4;overflow=hidden;points=[[0,0.5],[1,0.5]];portConstraint=eastwest;rotatable=0;whiteSpace=wrap;html=1;labelBackgroundColor=none;fontColor=#5C5C5C;rounded=1;" parent="yz6hyvaZa-Xoh-KUm_AY-7" vertex="1">
          <mxGeometry y="30" width="170" height="30" as="geometry" />
        </mxCell>
        <mxCell id="yz6hyvaZa-Xoh-KUm_AY-10" value="First_name (char 100)" style="text;strokeColor=none;fillColor=none;align=left;verticalAlign=middle;spacingLeft=4;spacingRight=4;overflow=hidden;points=[[0,0.5],[1,0.5]];portConstraint=eastwest;rotatable=0;whiteSpace=wrap;html=1;labelBackgroundColor=none;fontColor=#5C5C5C;rounded=1;" parent="yz6hyvaZa-Xoh-KUm_AY-7" vertex="1">
          <mxGeometry y="60" width="170" height="30" as="geometry" />
        </mxCell>
        <mxCell id="yz6hyvaZa-Xoh-KUm_AY-11" value="Last_name (char 100)" style="text;strokeColor=none;fillColor=none;align=left;verticalAlign=middle;spacingLeft=4;spacingRight=4;overflow=hidden;points=[[0,0.5],[1,0.5]];portConstraint=eastwest;rotatable=0;whiteSpace=wrap;html=1;labelBackgroundColor=none;fontColor=#5C5C5C;rounded=1;" parent="yz6hyvaZa-Xoh-KUm_AY-7" vertex="1">
          <mxGeometry y="90" width="170" height="30" as="geometry" />
        </mxCell>
        <mxCell id="yz6hyvaZa-Xoh-KUm_AY-16" value="Prefix_phone (char 6)" style="text;strokeColor=none;fillColor=none;align=left;verticalAlign=middle;spacingLeft=4;spacingRight=4;overflow=hidden;points=[[0,0.5],[1,0.5]];portConstraint=eastwest;rotatable=0;whiteSpace=wrap;html=1;labelBackgroundColor=none;fontColor=#5C5C5C;rounded=1;" parent="yz6hyvaZa-Xoh-KUm_AY-7" vertex="1">
          <mxGeometry y="120" width="170" height="30" as="geometry" />
        </mxCell>
        <mxCell id="yz6hyvaZa-Xoh-KUm_AY-14" value="Phone (char 20)" style="text;strokeColor=none;fillColor=none;align=left;verticalAlign=middle;spacingLeft=4;spacingRight=4;overflow=hidden;points=[[0,0.5],[1,0.5]];portConstraint=eastwest;rotatable=0;whiteSpace=wrap;html=1;labelBackgroundColor=none;fontColor=#5C5C5C;rounded=1;" parent="yz6hyvaZa-Xoh-KUm_AY-7" vertex="1">
          <mxGeometry y="150" width="170" height="30" as="geometry" />
        </mxCell>
        <mxCell id="yz6hyvaZa-Xoh-KUm_AY-13" value="Birth_date (date)" style="text;strokeColor=none;fillColor=none;align=left;verticalAlign=middle;spacingLeft=4;spacingRight=4;overflow=hidden;points=[[0,0.5],[1,0.5]];portConstraint=eastwest;rotatable=0;whiteSpace=wrap;html=1;labelBackgroundColor=none;fontColor=#5C5C5C;rounded=1;" parent="yz6hyvaZa-Xoh-KUm_AY-7" vertex="1">
          <mxGeometry y="180" width="170" height="30" as="geometry" />
        </mxCell>
        <mxCell id="yz6hyvaZa-Xoh-KUm_AY-12" value="Gender (char 1)" style="text;strokeColor=none;fillColor=none;align=left;verticalAlign=middle;spacingLeft=4;spacingRight=4;overflow=hidden;points=[[0,0.5],[1,0.5]];portConstraint=eastwest;rotatable=0;whiteSpace=wrap;html=1;labelBackgroundColor=none;fontColor=#5C5C5C;rounded=1;" parent="yz6hyvaZa-Xoh-KUm_AY-7" vertex="1">
          <mxGeometry y="210" width="170" height="30" as="geometry" />
        </mxCell>
        <mxCell id="yz6hyvaZa-Xoh-KUm_AY-17" value="Annotation_gender (char 30)" style="text;strokeColor=none;fillColor=none;align=left;verticalAlign=middle;spacingLeft=4;spacingRight=4;overflow=hidden;points=[[0,0.5],[1,0.5]];portConstraint=eastwest;rotatable=0;whiteSpace=wrap;html=1;labelBackgroundColor=none;fontColor=#5C5C5C;rounded=1;" parent="yz6hyvaZa-Xoh-KUm_AY-7" vertex="1">
          <mxGeometry y="240" width="170" height="30" as="geometry" />
        </mxCell>
        <mxCell id="yz6hyvaZa-Xoh-KUm_AY-15" value="Address (int FK)" style="text;strokeColor=none;fillColor=none;align=left;verticalAlign=middle;spacingLeft=4;spacingRight=4;overflow=hidden;points=[[0,0.5],[1,0.5]];portConstraint=eastwest;rotatable=0;whiteSpace=wrap;html=1;labelBackgroundColor=none;fontColor=#5C5C5C;rounded=1;" parent="yz6hyvaZa-Xoh-KUm_AY-7" vertex="1">
          <mxGeometry y="270" width="170" height="30" as="geometry" />
        </mxCell>
        <mxCell id="nmYzF3sqAzr96OTuuxgY-0" value="User (OneToOne)" style="text;strokeColor=none;fillColor=none;align=left;verticalAlign=middle;spacingLeft=4;spacingRight=4;overflow=hidden;points=[[0,0.5],[1,0.5]];portConstraint=eastwest;rotatable=0;whiteSpace=wrap;html=1;fontColor=#5C5C5C;" vertex="1" parent="yz6hyvaZa-Xoh-KUm_AY-7">
          <mxGeometry y="300" width="170" height="30" as="geometry" />
        </mxCell>
        <mxCell id="yz6hyvaZa-Xoh-KUm_AY-19" value="StaffProfile" style="swimlane;fontStyle=0;childLayout=stackLayout;horizontal=1;startSize=30;horizontalStack=0;resizeParent=1;resizeParentMax=0;resizeLast=0;collapsible=1;marginBottom=0;whiteSpace=wrap;html=1;fillColor=#21C0A5;strokeColor=#006658;labelBackgroundColor=none;fontColor=#5C5C5C;rounded=1;" parent="WIyWlLk6GJQsqaUBKTNV-1" vertex="1">
          <mxGeometry x="250" y="20" width="150" height="120" as="geometry" />
        </mxCell>
        <mxCell id="yz6hyvaZa-Xoh-KUm_AY-20" value="Department (int FK)" style="text;strokeColor=none;fillColor=none;align=left;verticalAlign=middle;spacingLeft=4;spacingRight=4;overflow=hidden;points=[[0,0.5],[1,0.5]];portConstraint=eastwest;rotatable=0;whiteSpace=wrap;html=1;labelBackgroundColor=none;fontColor=#5C5C5C;rounded=1;" parent="yz6hyvaZa-Xoh-KUm_AY-19" vertex="1">
          <mxGeometry y="30" width="150" height="30" as="geometry" />
        </mxCell>
        <mxCell id="yz6hyvaZa-Xoh-KUm_AY-21" value="Prefix_company_phone (char 5)" style="text;strokeColor=none;fillColor=none;align=left;verticalAlign=middle;spacingLeft=4;spacingRight=4;overflow=hidden;points=[[0,0.5],[1,0.5]];portConstraint=eastwest;rotatable=0;whiteSpace=wrap;html=1;labelBackgroundColor=none;fontColor=#5C5C5C;rounded=1;" parent="yz6hyvaZa-Xoh-KUm_AY-19" vertex="1">
          <mxGeometry y="60" width="150" height="30" as="geometry" />
        </mxCell>
        <mxCell id="yz6hyvaZa-Xoh-KUm_AY-22" value="Company_phone (char 20)" style="text;strokeColor=none;fillColor=none;align=left;verticalAlign=middle;spacingLeft=4;spacingRight=4;overflow=hidden;points=[[0,0.5],[1,0.5]];portConstraint=eastwest;rotatable=0;whiteSpace=wrap;html=1;labelBackgroundColor=none;fontColor=#5C5C5C;rounded=1;" parent="yz6hyvaZa-Xoh-KUm_AY-19" vertex="1">
          <mxGeometry y="90" width="150" height="30" as="geometry" />
        </mxCell>
        <mxCell id="yz6hyvaZa-Xoh-KUm_AY-24" value="Department" style="swimlane;fontStyle=0;childLayout=stackLayout;horizontal=1;startSize=30;horizontalStack=0;resizeParent=1;resizeParentMax=0;resizeLast=0;collapsible=1;marginBottom=0;whiteSpace=wrap;html=1;fillColor=#21C0A5;strokeColor=#006658;labelBackgroundColor=none;fontColor=#5C5C5C;rounded=1;" parent="WIyWlLk6GJQsqaUBKTNV-1" vertex="1">
          <mxGeometry x="450" y="20" width="140" height="120" as="geometry" />
        </mxCell>
        <mxCell id="yz6hyvaZa-Xoh-KUm_AY-25" value="Restaurant&amp;nbsp;(int FK)" style="text;strokeColor=none;fillColor=none;align=left;verticalAlign=middle;spacingLeft=4;spacingRight=4;overflow=hidden;points=[[0,0.5],[1,0.5]];portConstraint=eastwest;rotatable=0;whiteSpace=wrap;html=1;labelBackgroundColor=none;fontColor=#5C5C5C;rounded=1;" parent="yz6hyvaZa-Xoh-KUm_AY-24" vertex="1">
          <mxGeometry y="30" width="140" height="30" as="geometry" />
        </mxCell>
        <mxCell id="yz6hyvaZa-Xoh-KUm_AY-26" value="Name&amp;nbsp;(char 30)" style="text;strokeColor=none;fillColor=none;align=left;verticalAlign=middle;spacingLeft=4;spacingRight=4;overflow=hidden;points=[[0,0.5],[1,0.5]];portConstraint=eastwest;rotatable=0;whiteSpace=wrap;html=1;labelBackgroundColor=none;fontColor=#5C5C5C;rounded=1;" parent="yz6hyvaZa-Xoh-KUm_AY-24" vertex="1">
          <mxGeometry y="60" width="140" height="30" as="geometry" />
        </mxCell>
        <mxCell id="yz6hyvaZa-Xoh-KUm_AY-27" value="Dept_phone&amp;nbsp;(char 20)" style="text;strokeColor=none;fillColor=none;align=left;verticalAlign=middle;spacingLeft=4;spacingRight=4;overflow=hidden;points=[[0,0.5],[1,0.5]];portConstraint=eastwest;rotatable=0;whiteSpace=wrap;html=1;labelBackgroundColor=none;fontColor=#5C5C5C;rounded=1;" parent="yz6hyvaZa-Xoh-KUm_AY-24" vertex="1">
          <mxGeometry y="90" width="140" height="30" as="geometry" />
        </mxCell>
        <mxCell id="yz6hyvaZa-Xoh-KUm_AY-29" value="Zone" style="swimlane;fontStyle=0;childLayout=stackLayout;horizontal=1;startSize=30;horizontalStack=0;resizeParent=1;resizeParentMax=0;resizeLast=0;collapsible=1;marginBottom=0;whiteSpace=wrap;html=1;fillColor=#21C0A5;strokeColor=#006658;labelBackgroundColor=none;fontColor=#5C5C5C;rounded=1;" parent="WIyWlLk6GJQsqaUBKTNV-1" vertex="1">
          <mxGeometry x="240" y="660" width="140" height="120" as="geometry" />
        </mxCell>
        <mxCell id="yz6hyvaZa-Xoh-KUm_AY-30" value="Name (char 100)" style="text;strokeColor=none;fillColor=none;align=left;verticalAlign=middle;spacingLeft=4;spacingRight=4;overflow=hidden;points=[[0,0.5],[1,0.5]];portConstraint=eastwest;rotatable=0;whiteSpace=wrap;html=1;labelBackgroundColor=none;fontColor=#5C5C5C;rounded=1;" parent="yz6hyvaZa-Xoh-KUm_AY-29" vertex="1">
          <mxGeometry y="30" width="140" height="30" as="geometry" />
        </mxCell>
        <mxCell id="yz6hyvaZa-Xoh-KUm_AY-31" value="Description (text)" style="text;strokeColor=none;fillColor=none;align=left;verticalAlign=middle;spacingLeft=4;spacingRight=4;overflow=hidden;points=[[0,0.5],[1,0.5]];portConstraint=eastwest;rotatable=0;whiteSpace=wrap;html=1;labelBackgroundColor=none;fontColor=#5C5C5C;rounded=1;" parent="yz6hyvaZa-Xoh-KUm_AY-29" vertex="1">
          <mxGeometry y="60" width="140" height="30" as="geometry" />
        </mxCell>
        <mxCell id="yz6hyvaZa-Xoh-KUm_AY-32" value="Restaurant&amp;nbsp;(int FK)" style="text;strokeColor=none;fillColor=none;align=left;verticalAlign=middle;spacingLeft=4;spacingRight=4;overflow=hidden;points=[[0,0.5],[1,0.5]];portConstraint=eastwest;rotatable=0;whiteSpace=wrap;html=1;labelBackgroundColor=none;fontColor=#5C5C5C;rounded=1;" parent="yz6hyvaZa-Xoh-KUm_AY-29" vertex="1">
          <mxGeometry y="90" width="140" height="30" as="geometry" />
        </mxCell>
        <mxCell id="yz6hyvaZa-Xoh-KUm_AY-33" value="Address" style="swimlane;fontStyle=0;childLayout=stackLayout;horizontal=1;startSize=30;horizontalStack=0;resizeParent=1;resizeParentMax=0;resizeLast=0;collapsible=1;marginBottom=0;whiteSpace=wrap;html=1;fillColor=#21C0A5;strokeColor=#006658;labelBackgroundColor=none;fontColor=#5C5C5C;rounded=1;" parent="WIyWlLk6GJQsqaUBKTNV-1" vertex="1">
          <mxGeometry x="20" y="550" width="140" height="420" as="geometry" />
        </mxCell>
        <mxCell id="yz6hyvaZa-Xoh-KUm_AY-46" value="Zone&amp;nbsp;(int FK)" style="text;strokeColor=none;fillColor=none;align=left;verticalAlign=middle;spacingLeft=4;spacingRight=4;overflow=hidden;points=[[0,0.5],[1,0.5]];portConstraint=eastwest;rotatable=0;whiteSpace=wrap;html=1;labelBackgroundColor=none;fontColor=#5C5C5C;rounded=1;" parent="yz6hyvaZa-Xoh-KUm_AY-33" vertex="1">
          <mxGeometry y="30" width="140" height="30" as="geometry" />
        </mxCell>
        <mxCell id="yz6hyvaZa-Xoh-KUm_AY-34" value="Country (char 100)" style="text;strokeColor=none;fillColor=none;align=left;verticalAlign=middle;spacingLeft=4;spacingRight=4;overflow=hidden;points=[[0,0.5],[1,0.5]];portConstraint=eastwest;rotatable=0;whiteSpace=wrap;html=1;labelBackgroundColor=none;fontColor=#5C5C5C;rounded=1;" parent="yz6hyvaZa-Xoh-KUm_AY-33" vertex="1">
          <mxGeometry y="60" width="140" height="30" as="geometry" />
        </mxCell>
        <mxCell id="yz6hyvaZa-Xoh-KUm_AY-35" value="Region&amp;nbsp;(char 100)" style="text;strokeColor=none;fillColor=none;align=left;verticalAlign=middle;spacingLeft=4;spacingRight=4;overflow=hidden;points=[[0,0.5],[1,0.5]];portConstraint=eastwest;rotatable=0;whiteSpace=wrap;html=1;labelBackgroundColor=none;fontColor=#5C5C5C;rounded=1;" parent="yz6hyvaZa-Xoh-KUm_AY-33" vertex="1">
          <mxGeometry y="90" width="140" height="30" as="geometry" />
        </mxCell>
        <mxCell id="yz6hyvaZa-Xoh-KUm_AY-36" value="Sub_region&amp;nbsp;(char 100)" style="text;strokeColor=none;fillColor=none;align=left;verticalAlign=middle;spacingLeft=4;spacingRight=4;overflow=hidden;points=[[0,0.5],[1,0.5]];portConstraint=eastwest;rotatable=0;whiteSpace=wrap;html=1;labelBackgroundColor=none;fontColor=#5C5C5C;rounded=1;" parent="yz6hyvaZa-Xoh-KUm_AY-33" vertex="1">
          <mxGeometry y="120" width="140" height="30" as="geometry" />
        </mxCell>
        <mxCell id="yz6hyvaZa-Xoh-KUm_AY-42" value="City&amp;nbsp;(char 100)" style="text;strokeColor=none;fillColor=none;align=left;verticalAlign=middle;spacingLeft=4;spacingRight=4;overflow=hidden;points=[[0,0.5],[1,0.5]];portConstraint=eastwest;rotatable=0;whiteSpace=wrap;html=1;labelBackgroundColor=none;fontColor=#5C5C5C;rounded=1;" parent="yz6hyvaZa-Xoh-KUm_AY-33" vertex="1">
          <mxGeometry y="150" width="140" height="30" as="geometry" />
        </mxCell>
        <mxCell id="yz6hyvaZa-Xoh-KUm_AY-41" value="Street&amp;nbsp;(char 150)" style="text;strokeColor=none;fillColor=none;align=left;verticalAlign=middle;spacingLeft=4;spacingRight=4;overflow=hidden;points=[[0,0.5],[1,0.5]];portConstraint=eastwest;rotatable=0;whiteSpace=wrap;html=1;labelBackgroundColor=none;fontColor=#5C5C5C;rounded=1;" parent="yz6hyvaZa-Xoh-KUm_AY-33" vertex="1">
          <mxGeometry y="180" width="140" height="30" as="geometry" />
        </mxCell>
        <mxCell id="yz6hyvaZa-Xoh-KUm_AY-40" value="Number&amp;nbsp;(char 15)" style="text;strokeColor=none;fillColor=none;align=left;verticalAlign=middle;spacingLeft=4;spacingRight=4;overflow=hidden;points=[[0,0.5],[1,0.5]];portConstraint=eastwest;rotatable=0;whiteSpace=wrap;html=1;labelBackgroundColor=none;fontColor=#5C5C5C;rounded=1;" parent="yz6hyvaZa-Xoh-KUm_AY-33" vertex="1">
          <mxGeometry y="210" width="140" height="30" as="geometry" />
        </mxCell>
        <mxCell id="yz6hyvaZa-Xoh-KUm_AY-38" value="Floor&amp;nbsp;(char 20)" style="text;strokeColor=none;fillColor=none;align=left;verticalAlign=middle;spacingLeft=4;spacingRight=4;overflow=hidden;points=[[0,0.5],[1,0.5]];portConstraint=eastwest;rotatable=0;whiteSpace=wrap;html=1;labelBackgroundColor=none;fontColor=#5C5C5C;rounded=1;" parent="yz6hyvaZa-Xoh-KUm_AY-33" vertex="1">
          <mxGeometry y="240" width="140" height="30" as="geometry" />
        </mxCell>
        <mxCell id="yz6hyvaZa-Xoh-KUm_AY-39" value="Stair&amp;nbsp;(char 10)" style="text;strokeColor=none;fillColor=none;align=left;verticalAlign=middle;spacingLeft=4;spacingRight=4;overflow=hidden;points=[[0,0.5],[1,0.5]];portConstraint=eastwest;rotatable=0;whiteSpace=wrap;html=1;labelBackgroundColor=none;fontColor=#5C5C5C;rounded=1;" parent="yz6hyvaZa-Xoh-KUm_AY-33" vertex="1">
          <mxGeometry y="270" width="140" height="30" as="geometry" />
        </mxCell>
        <mxCell id="yz6hyvaZa-Xoh-KUm_AY-37" value="Door&amp;nbsp;(char 10)" style="text;strokeColor=none;fillColor=none;align=left;verticalAlign=middle;spacingLeft=4;spacingRight=4;overflow=hidden;points=[[0,0.5],[1,0.5]];portConstraint=eastwest;rotatable=0;whiteSpace=wrap;html=1;labelBackgroundColor=none;fontColor=#5C5C5C;rounded=1;" parent="yz6hyvaZa-Xoh-KUm_AY-33" vertex="1">
          <mxGeometry y="300" width="140" height="30" as="geometry" />
        </mxCell>
        <mxCell id="yz6hyvaZa-Xoh-KUm_AY-44" value="Postal_code&amp;nbsp;(char 10)" style="text;strokeColor=none;fillColor=none;align=left;verticalAlign=middle;spacingLeft=4;spacingRight=4;overflow=hidden;points=[[0,0.5],[1,0.5]];portConstraint=eastwest;rotatable=0;whiteSpace=wrap;html=1;labelBackgroundColor=none;fontColor=#5C5C5C;rounded=1;" parent="yz6hyvaZa-Xoh-KUm_AY-33" vertex="1">
          <mxGeometry y="330" width="140" height="30" as="geometry" />
        </mxCell>
        <mxCell id="yz6hyvaZa-Xoh-KUm_AY-45" value="Latitude (decimal)" style="text;strokeColor=none;fillColor=none;align=left;verticalAlign=middle;spacingLeft=4;spacingRight=4;overflow=hidden;points=[[0,0.5],[1,0.5]];portConstraint=eastwest;rotatable=0;whiteSpace=wrap;html=1;labelBackgroundColor=none;fontColor=#5C5C5C;rounded=1;" parent="yz6hyvaZa-Xoh-KUm_AY-33" vertex="1">
          <mxGeometry y="360" width="140" height="30" as="geometry" />
        </mxCell>
        <mxCell id="yz6hyvaZa-Xoh-KUm_AY-43" value="Longitude (decimal)" style="text;strokeColor=none;fillColor=none;align=left;verticalAlign=middle;spacingLeft=4;spacingRight=4;overflow=hidden;points=[[0,0.5],[1,0.5]];portConstraint=eastwest;rotatable=0;whiteSpace=wrap;html=1;labelBackgroundColor=none;fontColor=#5C5C5C;rounded=1;" parent="yz6hyvaZa-Xoh-KUm_AY-33" vertex="1">
          <mxGeometry y="390" width="140" height="30" as="geometry" />
        </mxCell>
        <mxCell id="b-BLGaZ5m4EuWuazaUTC-0" value="AbstractRestaurant" style="swimlane;fontStyle=0;childLayout=stackLayout;horizontal=1;startSize=30;horizontalStack=0;resizeParent=1;resizeParentMax=0;resizeLast=0;collapsible=1;marginBottom=0;whiteSpace=wrap;html=1;fillColor=#21C0A5;strokeColor=#006658;labelBackgroundColor=none;fontColor=#5C5C5C;rounded=1;" parent="WIyWlLk6GJQsqaUBKTNV-1" vertex="1">
          <mxGeometry x="670" y="360" width="140" height="210" as="geometry" />
        </mxCell>
        <mxCell id="b-BLGaZ5m4EuWuazaUTC-2" value="Name (char 50)" style="text;strokeColor=none;fillColor=none;align=left;verticalAlign=middle;spacingLeft=4;spacingRight=4;overflow=hidden;points=[[0,0.5],[1,0.5]];portConstraint=eastwest;rotatable=0;whiteSpace=wrap;html=1;labelBackgroundColor=none;fontColor=#5C5C5C;rounded=1;" parent="b-BLGaZ5m4EuWuazaUTC-0" vertex="1">
          <mxGeometry y="30" width="140" height="30" as="geometry" />
        </mxCell>
        <mxCell id="b-BLGaZ5m4EuWuazaUTC-3" value="Address&amp;nbsp;(int FK)" style="text;strokeColor=none;fillColor=none;align=left;verticalAlign=middle;spacingLeft=4;spacingRight=4;overflow=hidden;points=[[0,0.5],[1,0.5]];portConstraint=eastwest;rotatable=0;whiteSpace=wrap;html=1;labelBackgroundColor=none;fontColor=#5C5C5C;rounded=1;" parent="b-BLGaZ5m4EuWuazaUTC-0" vertex="1">
          <mxGeometry y="60" width="140" height="30" as="geometry" />
        </mxCell>
        <mxCell id="b-BLGaZ5m4EuWuazaUTC-8" value="Square_meters (posSmllInt)" style="text;strokeColor=none;fillColor=none;align=left;verticalAlign=middle;spacingLeft=4;spacingRight=4;overflow=hidden;points=[[0,0.5],[1,0.5]];portConstraint=eastwest;rotatable=0;whiteSpace=wrap;html=1;labelBackgroundColor=none;fontColor=#5C5C5C;rounded=1;" parent="b-BLGaZ5m4EuWuazaUTC-0" vertex="1">
          <mxGeometry y="90" width="140" height="30" as="geometry" />
        </mxCell>
        <mxCell id="b-BLGaZ5m4EuWuazaUTC-9" value="Description (text)" style="text;strokeColor=none;fillColor=none;align=left;verticalAlign=middle;spacingLeft=4;spacingRight=4;overflow=hidden;points=[[0,0.5],[1,0.5]];portConstraint=eastwest;rotatable=0;whiteSpace=wrap;html=1;labelBackgroundColor=none;fontColor=#5C5C5C;rounded=1;" parent="b-BLGaZ5m4EuWuazaUTC-0" vertex="1">
          <mxGeometry y="120" width="140" height="30" as="geometry" />
        </mxCell>
        <mxCell id="b-BLGaZ5m4EuWuazaUTC-10" value="Slug_restaurant (slug)" style="text;strokeColor=none;fillColor=none;align=left;verticalAlign=middle;spacingLeft=4;spacingRight=4;overflow=hidden;points=[[0,0.5],[1,0.5]];portConstraint=eastwest;rotatable=0;whiteSpace=wrap;html=1;labelBackgroundColor=none;fontColor=#5C5C5C;rounded=1;" parent="b-BLGaZ5m4EuWuazaUTC-0" vertex="1">
          <mxGeometry y="150" width="140" height="30" as="geometry" />
        </mxCell>
        <mxCell id="b-BLGaZ5m4EuWuazaUTC-11" value="Menu&amp;nbsp;(int FK)" style="text;strokeColor=none;fillColor=none;align=left;verticalAlign=middle;spacingLeft=4;spacingRight=4;overflow=hidden;points=[[0,0.5],[1,0.5]];portConstraint=eastwest;rotatable=0;whiteSpace=wrap;html=1;labelBackgroundColor=none;fontColor=#5C5C5C;rounded=1;" parent="b-BLGaZ5m4EuWuazaUTC-0" vertex="1">
          <mxGeometry y="180" width="140" height="30" as="geometry" />
        </mxCell>
        <mxCell id="b-BLGaZ5m4EuWuazaUTC-13" value="Restaurant" style="swimlane;fontStyle=0;childLayout=stackLayout;horizontal=1;startSize=30;horizontalStack=0;resizeParent=1;resizeParentMax=0;resizeLast=0;collapsible=1;marginBottom=0;whiteSpace=wrap;html=1;fillColor=#21C0A5;strokeColor=#006658;labelBackgroundColor=none;fontColor=#5C5C5C;rounded=1;" parent="WIyWlLk6GJQsqaUBKTNV-1" vertex="1">
          <mxGeometry x="630" y="215" width="140" height="100" as="geometry" />
        </mxCell>
        <mxCell id="b-BLGaZ5m4EuWuazaUTC-14" value="Is_managed (boolean)" style="text;strokeColor=none;fillColor=none;align=left;verticalAlign=middle;spacingLeft=4;spacingRight=4;overflow=hidden;points=[[0,0.5],[1,0.5]];portConstraint=eastwest;rotatable=0;whiteSpace=wrap;html=1;labelBackgroundColor=none;fontColor=#5C5C5C;rounded=1;" parent="b-BLGaZ5m4EuWuazaUTC-13" vertex="1">
          <mxGeometry y="30" width="140" height="30" as="geometry" />
        </mxCell>
        <mxCell id="b-BLGaZ5m4EuWuazaUTC-15" value="Management_user (int FK)" style="text;strokeColor=none;fillColor=none;align=left;verticalAlign=middle;spacingLeft=4;spacingRight=4;overflow=hidden;points=[[0,0.5],[1,0.5]];portConstraint=eastwest;rotatable=0;whiteSpace=wrap;html=1;labelBackgroundColor=none;fontColor=#5C5C5C;rounded=1;" parent="b-BLGaZ5m4EuWuazaUTC-13" vertex="1">
          <mxGeometry y="60" width="140" height="40" as="geometry" />
        </mxCell>
        <mxCell id="b-BLGaZ5m4EuWuazaUTC-19" value="MediaRestaurant" style="swimlane;fontStyle=0;childLayout=stackLayout;horizontal=1;startSize=30;horizontalStack=0;resizeParent=1;resizeParentMax=0;resizeLast=0;collapsible=1;marginBottom=0;whiteSpace=wrap;html=1;fillColor=#21C0A5;strokeColor=#006658;labelBackgroundColor=none;fontColor=#5C5C5C;rounded=1;" parent="WIyWlLk6GJQsqaUBKTNV-1" vertex="1">
          <mxGeometry x="680" y="20" width="140" height="120" as="geometry" />
        </mxCell>
        <mxCell id="b-BLGaZ5m4EuWuazaUTC-20" value="Restaurant&amp;nbsp;(int FK)" style="text;strokeColor=none;fillColor=none;align=left;verticalAlign=middle;spacingLeft=4;spacingRight=4;overflow=hidden;points=[[0,0.5],[1,0.5]];portConstraint=eastwest;rotatable=0;whiteSpace=wrap;html=1;labelBackgroundColor=none;fontColor=#5C5C5C;rounded=1;" parent="b-BLGaZ5m4EuWuazaUTC-19" vertex="1">
          <mxGeometry y="30" width="140" height="30" as="geometry" />
        </mxCell>
        <mxCell id="b-BLGaZ5m4EuWuazaUTC-21" value="Image (img)" style="text;strokeColor=none;fillColor=none;align=left;verticalAlign=middle;spacingLeft=4;spacingRight=4;overflow=hidden;points=[[0,0.5],[1,0.5]];portConstraint=eastwest;rotatable=0;whiteSpace=wrap;html=1;labelBackgroundColor=none;fontColor=#5C5C5C;rounded=1;" parent="b-BLGaZ5m4EuWuazaUTC-19" vertex="1">
          <mxGeometry y="60" width="140" height="30" as="geometry" />
        </mxCell>
        <mxCell id="b-BLGaZ5m4EuWuazaUTC-22" value="Is_cover (boolean)" style="text;strokeColor=none;fillColor=none;align=left;verticalAlign=middle;spacingLeft=4;spacingRight=4;overflow=hidden;points=[[0,0.5],[1,0.5]];portConstraint=eastwest;rotatable=0;whiteSpace=wrap;html=1;labelBackgroundColor=none;fontColor=#5C5C5C;rounded=1;" parent="b-BLGaZ5m4EuWuazaUTC-19" vertex="1">
          <mxGeometry y="90" width="140" height="30" as="geometry" />
        </mxCell>
        <mxCell id="b-BLGaZ5m4EuWuazaUTC-24" value="Menu" style="swimlane;fontStyle=0;childLayout=stackLayout;horizontal=1;startSize=30;horizontalStack=0;resizeParent=1;resizeParentMax=0;resizeLast=0;collapsible=1;marginBottom=0;whiteSpace=wrap;html=1;fillColor=#21C0A5;strokeColor=#006658;labelBackgroundColor=none;fontColor=#5C5C5C;rounded=1;" parent="WIyWlLk6GJQsqaUBKTNV-1" vertex="1">
          <mxGeometry x="670" y="660" width="140" height="150" as="geometry" />
        </mxCell>
        <mxCell id="b-BLGaZ5m4EuWuazaUTC-25" value="Price (decimal 10)" style="text;strokeColor=none;fillColor=none;align=left;verticalAlign=middle;spacingLeft=4;spacingRight=4;overflow=hidden;points=[[0,0.5],[1,0.5]];portConstraint=eastwest;rotatable=0;whiteSpace=wrap;html=1;labelBackgroundColor=none;fontColor=#5C5C5C;rounded=1;" parent="b-BLGaZ5m4EuWuazaUTC-24" vertex="1">
          <mxGeometry y="30" width="140" height="30" as="geometry" />
        </mxCell>
        <mxCell id="b-BLGaZ5m4EuWuazaUTC-27" value="Starter (int FK)" style="text;strokeColor=none;fillColor=none;align=left;verticalAlign=middle;spacingLeft=4;spacingRight=4;overflow=hidden;points=[[0,0.5],[1,0.5]];portConstraint=eastwest;rotatable=0;whiteSpace=wrap;html=1;labelBackgroundColor=none;fontColor=#5C5C5C;rounded=1;" parent="b-BLGaZ5m4EuWuazaUTC-24" vertex="1">
          <mxGeometry y="60" width="140" height="30" as="geometry" />
        </mxCell>
        <mxCell id="b-BLGaZ5m4EuWuazaUTC-36" value="Main (int FK)" style="text;strokeColor=none;fillColor=none;align=left;verticalAlign=middle;spacingLeft=4;spacingRight=4;overflow=hidden;points=[[0,0.5],[1,0.5]];portConstraint=eastwest;rotatable=0;whiteSpace=wrap;html=1;labelBackgroundColor=none;fontColor=#5C5C5C;rounded=1;" parent="b-BLGaZ5m4EuWuazaUTC-24" vertex="1">
          <mxGeometry y="90" width="140" height="30" as="geometry" />
        </mxCell>
        <mxCell id="b-BLGaZ5m4EuWuazaUTC-37" value="Dessert (int FK)" style="text;strokeColor=none;fillColor=none;align=left;verticalAlign=middle;spacingLeft=4;spacingRight=4;overflow=hidden;points=[[0,0.5],[1,0.5]];portConstraint=eastwest;rotatable=0;whiteSpace=wrap;html=1;labelBackgroundColor=none;fontColor=#5C5C5C;rounded=1;" parent="b-BLGaZ5m4EuWuazaUTC-24" vertex="1">
          <mxGeometry y="120" width="140" height="30" as="geometry" />
        </mxCell>
        <mxCell id="b-BLGaZ5m4EuWuazaUTC-28" value="Reserve" style="swimlane;fontStyle=0;childLayout=stackLayout;horizontal=1;startSize=30;horizontalStack=0;resizeParent=1;resizeParentMax=0;resizeLast=0;collapsible=1;marginBottom=0;whiteSpace=wrap;html=1;fillColor=#21C0A5;strokeColor=#006658;labelBackgroundColor=none;fontColor=#5C5C5C;rounded=1;" parent="WIyWlLk6GJQsqaUBKTNV-1" vertex="1">
          <mxGeometry x="414" y="230" width="140" height="180" as="geometry" />
        </mxCell>
        <mxCell id="b-BLGaZ5m4EuWuazaUTC-29" value="Customer (int FK)" style="text;strokeColor=none;fillColor=none;align=left;verticalAlign=middle;spacingLeft=4;spacingRight=4;overflow=hidden;points=[[0,0.5],[1,0.5]];portConstraint=eastwest;rotatable=0;whiteSpace=wrap;html=1;labelBackgroundColor=none;fontColor=#5C5C5C;rounded=1;" parent="b-BLGaZ5m4EuWuazaUTC-28" vertex="1">
          <mxGeometry y="30" width="140" height="30" as="geometry" />
        </mxCell>
        <mxCell id="dNBtrrBop_Eb0bzp6sH0-12" value="Restaurant (int FK)" style="text;strokeColor=none;fillColor=none;align=left;verticalAlign=middle;spacingLeft=4;spacingRight=4;overflow=hidden;points=[[0,0.5],[1,0.5]];portConstraint=eastwest;rotatable=0;whiteSpace=wrap;html=1;labelBackgroundColor=none;fontColor=#5C5C5C;rounded=1;" parent="b-BLGaZ5m4EuWuazaUTC-28" vertex="1">
          <mxGeometry y="60" width="140" height="30" as="geometry" />
        </mxCell>
        <mxCell id="b-BLGaZ5m4EuWuazaUTC-30" value="Extra_customer (ManytoMany)" style="text;strokeColor=none;fillColor=none;align=left;verticalAlign=middle;spacingLeft=4;spacingRight=4;overflow=hidden;points=[[0,0.5],[1,0.5]];portConstraint=eastwest;rotatable=0;whiteSpace=wrap;html=1;labelBackgroundColor=none;fontColor=#5C5C5C;rounded=1;" parent="b-BLGaZ5m4EuWuazaUTC-28" vertex="1">
          <mxGeometry y="90" width="140" height="30" as="geometry" />
        </mxCell>
        <mxCell id="b-BLGaZ5m4EuWuazaUTC-31" value="Date (datetime)" style="text;strokeColor=none;fillColor=none;align=left;verticalAlign=middle;spacingLeft=4;spacingRight=4;overflow=hidden;points=[[0,0.5],[1,0.5]];portConstraint=eastwest;rotatable=0;whiteSpace=wrap;html=1;labelBackgroundColor=none;fontColor=#5C5C5C;rounded=1;" parent="b-BLGaZ5m4EuWuazaUTC-28" vertex="1">
          <mxGeometry y="120" width="140" height="30" as="geometry" />
        </mxCell>
        <mxCell id="b-BLGaZ5m4EuWuazaUTC-32" value="Status (char 1)" style="text;strokeColor=none;fillColor=none;align=left;verticalAlign=middle;spacingLeft=4;spacingRight=4;overflow=hidden;points=[[0,0.5],[1,0.5]];portConstraint=eastwest;rotatable=0;whiteSpace=wrap;html=1;labelBackgroundColor=none;fontColor=#5C5C5C;rounded=1;" parent="b-BLGaZ5m4EuWuazaUTC-28" vertex="1">
          <mxGeometry y="150" width="140" height="30" as="geometry" />
        </mxCell>
        <mxCell id="yz6hyvaZa-Xoh-KUm_AY-1" value="CustomerProfile" style="swimlane;fontStyle=0;childLayout=stackLayout;horizontal=1;startSize=30;horizontalStack=0;resizeParent=1;resizeParentMax=0;resizeLast=0;collapsible=1;marginBottom=0;whiteSpace=wrap;html=1;fillColor=#21C0A5;strokeColor=#006658;labelBackgroundColor=none;fontColor=#5C5C5C;rounded=1;" parent="WIyWlLk6GJQsqaUBKTNV-1" vertex="1">
          <mxGeometry x="220" y="185" width="140" height="60" as="geometry" />
        </mxCell>
        <mxCell id="b-BLGaZ5m4EuWuazaUTC-40" value="Plates" style="swimlane;fontStyle=0;childLayout=stackLayout;horizontal=1;startSize=30;horizontalStack=0;resizeParent=1;resizeParentMax=0;resizeLast=0;collapsible=1;marginBottom=0;whiteSpace=wrap;html=1;fillColor=#21C0A5;strokeColor=#006658;labelBackgroundColor=none;fontColor=#5C5C5C;rounded=1;" parent="WIyWlLk6GJQsqaUBKTNV-1" vertex="1">
          <mxGeometry x="440" y="735" width="140" height="120" as="geometry" />
        </mxCell>
        <mxCell id="b-BLGaZ5m4EuWuazaUTC-41" value="Type (char 3)" style="text;strokeColor=none;fillColor=none;align=left;verticalAlign=middle;spacingLeft=4;spacingRight=4;overflow=hidden;points=[[0,0.5],[1,0.5]];portConstraint=eastwest;rotatable=0;whiteSpace=wrap;html=1;labelBackgroundColor=none;fontColor=#5C5C5C;rounded=1;" parent="b-BLGaZ5m4EuWuazaUTC-40" vertex="1">
          <mxGeometry y="30" width="140" height="30" as="geometry" />
        </mxCell>
        <mxCell id="b-BLGaZ5m4EuWuazaUTC-42" value="Name (char 50)" style="text;strokeColor=none;fillColor=none;align=left;verticalAlign=middle;spacingLeft=4;spacingRight=4;overflow=hidden;points=[[0,0.5],[1,0.5]];portConstraint=eastwest;rotatable=0;whiteSpace=wrap;html=1;labelBackgroundColor=none;fontColor=#5C5C5C;rounded=1;" parent="b-BLGaZ5m4EuWuazaUTC-40" vertex="1">
          <mxGeometry y="60" width="140" height="30" as="geometry" />
        </mxCell>
        <mxCell id="b-BLGaZ5m4EuWuazaUTC-43" value="Ingredients (text)" style="text;strokeColor=none;fillColor=none;align=left;verticalAlign=middle;spacingLeft=4;spacingRight=4;overflow=hidden;points=[[0,0.5],[1,0.5]];portConstraint=eastwest;rotatable=0;whiteSpace=wrap;html=1;labelBackgroundColor=none;fontColor=#5C5C5C;rounded=1;" parent="b-BLGaZ5m4EuWuazaUTC-40" vertex="1">
          <mxGeometry y="90" width="140" height="30" as="geometry" />
        </mxCell>
        <mxCell id="dNBtrrBop_Eb0bzp6sH0-3" value="" style="endArrow=classic;html=1;rounded=1;entryX=0;entryY=0;entryDx=0;entryDy=0;exitX=1;exitY=0;exitDx=0;exitDy=0;labelBackgroundColor=none;strokeColor=#006658;fontColor=default;" parent="WIyWlLk6GJQsqaUBKTNV-1" source="yz6hyvaZa-Xoh-KUm_AY-7" target="yz6hyvaZa-Xoh-KUm_AY-19" edge="1">
          <mxGeometry width="50" height="50" relative="1" as="geometry">
            <mxPoint x="180" y="110" as="sourcePoint" />
            <mxPoint x="230" y="60" as="targetPoint" />
          </mxGeometry>
        </mxCell>
        <mxCell id="dNBtrrBop_Eb0bzp6sH0-4" value="" style="endArrow=classic;html=1;rounded=1;entryX=0;entryY=0;entryDx=0;entryDy=0;exitX=0.993;exitY=0.064;exitDx=0;exitDy=0;exitPerimeter=0;labelBackgroundColor=none;strokeColor=#006658;fontColor=default;" parent="WIyWlLk6GJQsqaUBKTNV-1" source="yz6hyvaZa-Xoh-KUm_AY-7" target="yz6hyvaZa-Xoh-KUm_AY-1" edge="1">
          <mxGeometry width="50" height="50" relative="1" as="geometry">
            <mxPoint x="180" y="110" as="sourcePoint" />
            <mxPoint x="230" y="60" as="targetPoint" />
          </mxGeometry>
        </mxCell>
        <mxCell id="dNBtrrBop_Eb0bzp6sH0-5" value="" style="endArrow=classic;startArrow=classic;html=1;rounded=1;entryX=0;entryY=0.167;entryDx=0;entryDy=0;entryPerimeter=0;exitX=1;exitY=0.5;exitDx=0;exitDy=0;labelBackgroundColor=none;strokeColor=#006658;fontColor=default;" parent="WIyWlLk6GJQsqaUBKTNV-1" source="yz6hyvaZa-Xoh-KUm_AY-46" target="yz6hyvaZa-Xoh-KUm_AY-29" edge="1">
          <mxGeometry width="50" height="50" relative="1" as="geometry">
            <mxPoint x="200" y="620" as="sourcePoint" />
            <mxPoint x="250" y="570" as="targetPoint" />
          </mxGeometry>
        </mxCell>
        <mxCell id="dNBtrrBop_Eb0bzp6sH0-7" value="" style="endArrow=classic;startArrow=classic;html=1;rounded=1;entryX=0;entryY=0.5;entryDx=0;entryDy=0;exitX=1;exitY=0.25;exitDx=0;exitDy=0;labelBackgroundColor=none;strokeColor=#006658;fontColor=default;" parent="WIyWlLk6GJQsqaUBKTNV-1" source="yz6hyvaZa-Xoh-KUm_AY-1" target="b-BLGaZ5m4EuWuazaUTC-29" edge="1">
          <mxGeometry width="50" height="50" relative="1" as="geometry">
            <mxPoint x="370" y="190" as="sourcePoint" />
            <mxPoint x="420" y="140" as="targetPoint" />
          </mxGeometry>
        </mxCell>
        <mxCell id="dNBtrrBop_Eb0bzp6sH0-8" value="" style="endArrow=classic;startArrow=classic;html=1;rounded=1;entryX=-0.007;entryY=0.142;entryDx=0;entryDy=0;entryPerimeter=0;exitX=1;exitY=0.5;exitDx=0;exitDy=0;labelBackgroundColor=none;strokeColor=#006658;fontColor=default;" parent="WIyWlLk6GJQsqaUBKTNV-1" source="yz6hyvaZa-Xoh-KUm_AY-20" target="yz6hyvaZa-Xoh-KUm_AY-24" edge="1">
          <mxGeometry width="50" height="50" relative="1" as="geometry">
            <mxPoint x="370" y="100" as="sourcePoint" />
            <mxPoint x="420" y="50" as="targetPoint" />
          </mxGeometry>
        </mxCell>
        <mxCell id="dNBtrrBop_Eb0bzp6sH0-9" value="" style="endArrow=classic;startArrow=classic;html=1;rounded=1;entryX=1;entryY=0.5;entryDx=0;entryDy=0;exitX=0.25;exitY=0;exitDx=0;exitDy=0;labelBackgroundColor=none;strokeColor=#006658;fontColor=default;" parent="WIyWlLk6GJQsqaUBKTNV-1" source="b-BLGaZ5m4EuWuazaUTC-13" target="yz6hyvaZa-Xoh-KUm_AY-25" edge="1">
          <mxGeometry width="50" height="50" relative="1" as="geometry">
            <mxPoint x="650" y="105" as="sourcePoint" />
            <mxPoint x="700" y="55" as="targetPoint" />
          </mxGeometry>
        </mxCell>
        <mxCell id="dNBtrrBop_Eb0bzp6sH0-10" value="" style="curved=1;endArrow=classic;html=1;rounded=1;entryX=1;entryY=0.25;entryDx=0;entryDy=0;exitX=0.75;exitY=0;exitDx=0;exitDy=0;labelBackgroundColor=none;strokeColor=#006658;fontColor=default;" parent="WIyWlLk6GJQsqaUBKTNV-1" source="b-BLGaZ5m4EuWuazaUTC-0" target="b-BLGaZ5m4EuWuazaUTC-13" edge="1">
          <mxGeometry width="50" height="50" relative="1" as="geometry">
            <mxPoint x="750" y="340" as="sourcePoint" />
            <mxPoint x="800" y="290" as="targetPoint" />
            <Array as="points">
              <mxPoint x="800" y="340" />
              <mxPoint x="790" y="260" />
            </Array>
          </mxGeometry>
        </mxCell>
        <mxCell id="dNBtrrBop_Eb0bzp6sH0-11" value="" style="endArrow=classic;startArrow=classic;html=1;rounded=1;exitX=1;exitY=0;exitDx=0;exitDy=0;entryX=0;entryY=0.5;entryDx=0;entryDy=0;labelBackgroundColor=none;strokeColor=#006658;fontColor=default;" parent="WIyWlLk6GJQsqaUBKTNV-1" source="yz6hyvaZa-Xoh-KUm_AY-33" target="b-BLGaZ5m4EuWuazaUTC-3" edge="1">
          <mxGeometry width="50" height="50" relative="1" as="geometry">
            <mxPoint x="390" y="530" as="sourcePoint" />
            <mxPoint x="440" y="480" as="targetPoint" />
          </mxGeometry>
        </mxCell>
        <mxCell id="dNBtrrBop_Eb0bzp6sH0-13" value="" style="endArrow=classic;startArrow=classic;html=1;rounded=1;entryX=0;entryY=0;entryDx=0;entryDy=0;exitX=1;exitY=0;exitDx=0;exitDy=0;labelBackgroundColor=none;strokeColor=#006658;fontColor=default;" parent="WIyWlLk6GJQsqaUBKTNV-1" source="b-BLGaZ5m4EuWuazaUTC-28" target="b-BLGaZ5m4EuWuazaUTC-13" edge="1">
          <mxGeometry width="50" height="50" relative="1" as="geometry">
            <mxPoint x="550" y="280" as="sourcePoint" />
            <mxPoint x="600" y="230" as="targetPoint" />
          </mxGeometry>
        </mxCell>
        <mxCell id="dNBtrrBop_Eb0bzp6sH0-14" value="" style="curved=1;endArrow=classic;html=1;rounded=1;exitX=0.5;exitY=0;exitDx=0;exitDy=0;entryX=0;entryY=0;entryDx=0;entryDy=0;labelBackgroundColor=none;strokeColor=#006658;fontColor=default;" parent="WIyWlLk6GJQsqaUBKTNV-1" source="b-BLGaZ5m4EuWuazaUTC-13" target="b-BLGaZ5m4EuWuazaUTC-19" edge="1">
          <mxGeometry width="50" height="50" relative="1" as="geometry">
            <mxPoint x="690" y="200" as="sourcePoint" />
            <mxPoint x="630" y="30" as="targetPoint" />
            <Array as="points">
              <mxPoint x="740" y="200" />
              <mxPoint x="670" y="160" />
              <mxPoint x="640" y="90" />
            </Array>
          </mxGeometry>
        </mxCell>
        <mxCell id="dNBtrrBop_Eb0bzp6sH0-20" value="" style="curved=1;endArrow=classic;html=1;rounded=1;exitX=0.5;exitY=0;exitDx=0;exitDy=0;entryX=0;entryY=0;entryDx=0;entryDy=0;labelBackgroundColor=none;strokeColor=#006658;fontColor=default;" parent="WIyWlLk6GJQsqaUBKTNV-1" source="b-BLGaZ5m4EuWuazaUTC-40" target="b-BLGaZ5m4EuWuazaUTC-24" edge="1">
          <mxGeometry width="50" height="50" relative="1" as="geometry">
            <mxPoint x="510" y="695" as="sourcePoint" />
            <mxPoint x="560" y="645" as="targetPoint" />
            <Array as="points">
              <mxPoint x="560" y="695" />
              <mxPoint x="510" y="645" />
            </Array>
          </mxGeometry>
        </mxCell>
        <mxCell id="dNBtrrBop_Eb0bzp6sH0-21" value="" style="endArrow=classic;startArrow=classic;html=1;rounded=1;entryX=0.5;entryY=1;entryDx=0;entryDy=0;entryPerimeter=0;exitX=0.5;exitY=0;exitDx=0;exitDy=0;labelBackgroundColor=none;strokeColor=#006658;fontColor=default;" parent="WIyWlLk6GJQsqaUBKTNV-1" source="b-BLGaZ5m4EuWuazaUTC-24" target="b-BLGaZ5m4EuWuazaUTC-11" edge="1">
          <mxGeometry width="50" height="50" relative="1" as="geometry">
            <mxPoint x="739.5" y="660" as="sourcePoint" />
            <mxPoint x="739.5" y="610" as="targetPoint" />
          </mxGeometry>
        </mxCell>
        <mxCell id="dNBtrrBop_Eb0bzp6sH0-22" value="0/N" style="text;html=1;strokeColor=none;fillColor=none;align=center;verticalAlign=middle;whiteSpace=wrap;rounded=1;labelBackgroundColor=none;fontColor=#5C5C5C;" parent="WIyWlLk6GJQsqaUBKTNV-1" vertex="1">
          <mxGeometry x="150" y="585" width="60" height="30" as="geometry" />
        </mxCell>
        <mxCell id="dNBtrrBop_Eb0bzp6sH0-23" value="1" style="text;html=1;strokeColor=none;fillColor=none;align=center;verticalAlign=middle;whiteSpace=wrap;rounded=1;labelBackgroundColor=none;fontColor=#5C5C5C;" parent="WIyWlLk6GJQsqaUBKTNV-1" vertex="1">
          <mxGeometry x="200" y="640" width="60" height="30" as="geometry" />
        </mxCell>
        <mxCell id="dNBtrrBop_Eb0bzp6sH0-25" value="0/N" style="text;html=1;strokeColor=none;fillColor=none;align=center;verticalAlign=middle;whiteSpace=wrap;rounded=1;labelBackgroundColor=none;fontColor=#5C5C5C;" parent="WIyWlLk6GJQsqaUBKTNV-1" vertex="1">
          <mxGeometry y="280" width="60" height="30" as="geometry" />
        </mxCell>
        <mxCell id="dNBtrrBop_Eb0bzp6sH0-26" value="1" style="text;html=1;strokeColor=none;fillColor=none;align=center;verticalAlign=middle;whiteSpace=wrap;rounded=1;labelBackgroundColor=none;fontColor=#5C5C5C;" parent="WIyWlLk6GJQsqaUBKTNV-1" vertex="1">
          <mxGeometry x="40" y="520" width="60" height="30" as="geometry" />
        </mxCell>
        <mxCell id="dNBtrrBop_Eb0bzp6sH0-27" value="1" style="text;html=1;strokeColor=none;fillColor=none;align=center;verticalAlign=middle;whiteSpace=wrap;rounded=1;labelBackgroundColor=none;fontColor=#5C5C5C;" parent="WIyWlLk6GJQsqaUBKTNV-1" vertex="1">
          <mxGeometry x="150" y="520" width="60" height="30" as="geometry" />
        </mxCell>
        <mxCell id="dNBtrrBop_Eb0bzp6sH0-28" value="0/N" style="text;html=1;strokeColor=none;fillColor=none;align=center;verticalAlign=middle;whiteSpace=wrap;rounded=1;labelBackgroundColor=none;fontColor=#5C5C5C;" parent="WIyWlLk6GJQsqaUBKTNV-1" vertex="1">
          <mxGeometry x="620" y="440" width="60" height="30" as="geometry" />
        </mxCell>
        <mxCell id="dNBtrrBop_Eb0bzp6sH0-29" value="1" style="text;html=1;strokeColor=none;fillColor=none;align=center;verticalAlign=middle;whiteSpace=wrap;rounded=1;labelBackgroundColor=none;fontColor=#5C5C5C;" parent="WIyWlLk6GJQsqaUBKTNV-1" vertex="1">
          <mxGeometry x="350" y="190" width="60" height="30" as="geometry" />
        </mxCell>
        <mxCell id="dNBtrrBop_Eb0bzp6sH0-30" value="0/N" style="text;html=1;strokeColor=none;fillColor=none;align=center;verticalAlign=middle;whiteSpace=wrap;rounded=1;labelBackgroundColor=none;fontColor=#5C5C5C;" parent="WIyWlLk6GJQsqaUBKTNV-1" vertex="1">
          <mxGeometry x="360" y="250" width="60" height="30" as="geometry" />
        </mxCell>
        <mxCell id="dNBtrrBop_Eb0bzp6sH0-31" value="0/N" style="text;html=1;strokeColor=none;fillColor=none;align=center;verticalAlign=middle;whiteSpace=wrap;rounded=1;labelBackgroundColor=none;fontColor=#5C5C5C;" parent="WIyWlLk6GJQsqaUBKTNV-1" vertex="1">
          <mxGeometry x="380" y="60" width="60" height="30" as="geometry" />
        </mxCell>
        <mxCell id="dNBtrrBop_Eb0bzp6sH0-32" value="1" style="text;html=1;strokeColor=none;fillColor=none;align=center;verticalAlign=middle;whiteSpace=wrap;rounded=1;labelBackgroundColor=none;fontColor=#5C5C5C;" parent="WIyWlLk6GJQsqaUBKTNV-1" vertex="1">
          <mxGeometry x="410" y="40" width="60" height="30" as="geometry" />
        </mxCell>
        <mxCell id="dNBtrrBop_Eb0bzp6sH0-33" value="0/N" style="text;html=1;strokeColor=none;fillColor=none;align=center;verticalAlign=middle;whiteSpace=wrap;rounded=1;labelBackgroundColor=none;fontColor=#5C5C5C;" parent="WIyWlLk6GJQsqaUBKTNV-1" vertex="1">
          <mxGeometry x="540" y="200" width="40" height="30" as="geometry" />
        </mxCell>
        <mxCell id="dNBtrrBop_Eb0bzp6sH0-35" value="1" style="text;html=1;strokeColor=none;fillColor=none;align=center;verticalAlign=middle;whiteSpace=wrap;rounded=1;labelBackgroundColor=none;fontColor=#5C5C5C;" parent="WIyWlLk6GJQsqaUBKTNV-1" vertex="1">
          <mxGeometry x="590" y="190" width="60" height="30" as="geometry" />
        </mxCell>
        <mxCell id="dNBtrrBop_Eb0bzp6sH0-36" value="0/N" style="text;html=1;strokeColor=none;fillColor=none;align=center;verticalAlign=middle;whiteSpace=wrap;rounded=1;labelBackgroundColor=none;fontColor=#5C5C5C;" parent="WIyWlLk6GJQsqaUBKTNV-1" vertex="1">
          <mxGeometry x="580" y="50" width="60" height="30" as="geometry" />
        </mxCell>
        <mxCell id="dNBtrrBop_Eb0bzp6sH0-37" value="1" style="text;html=1;strokeColor=none;fillColor=none;align=center;verticalAlign=middle;whiteSpace=wrap;rounded=1;labelBackgroundColor=none;fontColor=#5C5C5C;" parent="WIyWlLk6GJQsqaUBKTNV-1" vertex="1">
          <mxGeometry x="640" y="180" width="60" height="30" as="geometry" />
        </mxCell>
        <mxCell id="dNBtrrBop_Eb0bzp6sH0-39" value="0/N" style="text;html=1;strokeColor=none;fillColor=none;align=center;verticalAlign=middle;whiteSpace=wrap;rounded=1;labelBackgroundColor=none;fontColor=#5C5C5C;" parent="WIyWlLk6GJQsqaUBKTNV-1" vertex="1">
          <mxGeometry x="630" y="20" width="60" height="30" as="geometry" />
        </mxCell>
        <mxCell id="dNBtrrBop_Eb0bzp6sH0-40" value="1" style="text;html=1;strokeColor=none;fillColor=none;align=center;verticalAlign=middle;whiteSpace=wrap;rounded=1;labelBackgroundColor=none;fontColor=#5C5C5C;" parent="WIyWlLk6GJQsqaUBKTNV-1" vertex="1">
          <mxGeometry x="700" y="185" width="60" height="30" as="geometry" />
        </mxCell>
        <mxCell id="dNBtrrBop_Eb0bzp6sH0-42" value="0/N" style="text;html=1;strokeColor=none;fillColor=none;align=center;verticalAlign=middle;whiteSpace=wrap;rounded=1;labelBackgroundColor=none;fontColor=#5C5C5C;" parent="WIyWlLk6GJQsqaUBKTNV-1" vertex="1">
          <mxGeometry x="730" y="600" width="60" height="30" as="geometry" />
        </mxCell>
        <mxCell id="dNBtrrBop_Eb0bzp6sH0-43" value="0/N" style="text;html=1;strokeColor=none;fillColor=none;align=center;verticalAlign=middle;whiteSpace=wrap;rounded=1;labelBackgroundColor=none;fontColor=#5C5C5C;" parent="WIyWlLk6GJQsqaUBKTNV-1" vertex="1">
          <mxGeometry x="730" y="640" width="60" height="30" as="geometry" />
        </mxCell>
        <mxCell id="dNBtrrBop_Eb0bzp6sH0-44" value="AbstractLead" style="swimlane;fontStyle=0;childLayout=stackLayout;horizontal=1;startSize=30;horizontalStack=0;resizeParent=1;resizeParentMax=0;resizeLast=0;collapsible=1;marginBottom=0;whiteSpace=wrap;html=1;fillColor=#21C0A5;strokeColor=#006658;labelBackgroundColor=none;fontColor=#5C5C5C;rounded=1;" parent="WIyWlLk6GJQsqaUBKTNV-1" vertex="1">
          <mxGeometry x="400" y="880" width="140" height="150" as="geometry" />
        </mxCell>
        <mxCell id="dNBtrrBop_Eb0bzp6sH0-45" value="Name&amp;nbsp;(char 100)" style="text;strokeColor=none;fillColor=none;align=left;verticalAlign=middle;spacingLeft=4;spacingRight=4;overflow=hidden;points=[[0,0.5],[1,0.5]];portConstraint=eastwest;rotatable=0;whiteSpace=wrap;html=1;labelBackgroundColor=none;fontColor=#5C5C5C;rounded=1;" parent="dNBtrrBop_Eb0bzp6sH0-44" vertex="1">
          <mxGeometry y="30" width="140" height="30" as="geometry" />
        </mxCell>
        <mxCell id="dNBtrrBop_Eb0bzp6sH0-46" value="Email (email)" style="text;strokeColor=none;fillColor=none;align=left;verticalAlign=middle;spacingLeft=4;spacingRight=4;overflow=hidden;points=[[0,0.5],[1,0.5]];portConstraint=eastwest;rotatable=0;whiteSpace=wrap;html=1;labelBackgroundColor=none;fontColor=#5C5C5C;rounded=1;" parent="dNBtrrBop_Eb0bzp6sH0-44" vertex="1">
          <mxGeometry y="60" width="140" height="30" as="geometry" />
        </mxCell>
        <mxCell id="dNBtrrBop_Eb0bzp6sH0-47" value="Prefix_phone&amp;nbsp;(char 5)" style="text;strokeColor=none;fillColor=none;align=left;verticalAlign=middle;spacingLeft=4;spacingRight=4;overflow=hidden;points=[[0,0.5],[1,0.5]];portConstraint=eastwest;rotatable=0;whiteSpace=wrap;html=1;labelBackgroundColor=none;fontColor=#5C5C5C;rounded=1;" parent="dNBtrrBop_Eb0bzp6sH0-44" vertex="1">
          <mxGeometry y="90" width="140" height="30" as="geometry" />
        </mxCell>
        <mxCell id="dNBtrrBop_Eb0bzp6sH0-48" value="Phone&amp;nbsp;(char 20)" style="text;strokeColor=none;fillColor=none;align=left;verticalAlign=middle;spacingLeft=4;spacingRight=4;overflow=hidden;points=[[0,0.5],[1,0.5]];portConstraint=eastwest;rotatable=0;whiteSpace=wrap;html=1;labelBackgroundColor=none;fontColor=#5C5C5C;rounded=1;" parent="dNBtrrBop_Eb0bzp6sH0-44" vertex="1">
          <mxGeometry y="120" width="140" height="30" as="geometry" />
        </mxCell>
        <mxCell id="dNBtrrBop_Eb0bzp6sH0-49" value="JobApplication" style="swimlane;fontStyle=0;childLayout=stackLayout;horizontal=1;startSize=30;horizontalStack=0;resizeParent=1;resizeParentMax=0;resizeLast=0;collapsible=1;marginBottom=0;whiteSpace=wrap;html=1;fillColor=#21C0A5;strokeColor=#006658;labelBackgroundColor=none;fontColor=#5C5C5C;rounded=1;" parent="WIyWlLk6GJQsqaUBKTNV-1" vertex="1">
          <mxGeometry x="200" y="880" width="140" height="270" as="geometry" />
        </mxCell>
        <mxCell id="dNBtrrBop_Eb0bzp6sH0-50" value="NIF&amp;nbsp;(char 20)" style="text;strokeColor=none;fillColor=none;align=left;verticalAlign=middle;spacingLeft=4;spacingRight=4;overflow=hidden;points=[[0,0.5],[1,0.5]];portConstraint=eastwest;rotatable=0;whiteSpace=wrap;html=1;labelBackgroundColor=none;fontColor=#5C5C5C;rounded=1;" parent="dNBtrrBop_Eb0bzp6sH0-49" vertex="1">
          <mxGeometry y="30" width="140" height="30" as="geometry" />
        </mxCell>
        <mxCell id="dNBtrrBop_Eb0bzp6sH0-51" value="Age&amp;nbsp;(char 5)" style="text;strokeColor=none;fillColor=none;align=left;verticalAlign=middle;spacingLeft=4;spacingRight=4;overflow=hidden;points=[[0,0.5],[1,0.5]];portConstraint=eastwest;rotatable=0;whiteSpace=wrap;html=1;labelBackgroundColor=none;fontColor=#5C5C5C;rounded=1;" parent="dNBtrrBop_Eb0bzp6sH0-49" vertex="1">
          <mxGeometry y="60" width="140" height="30" as="geometry" />
        </mxCell>
        <mxCell id="dNBtrrBop_Eb0bzp6sH0-52" value="Origin&amp;nbsp;(char 100)" style="text;strokeColor=none;fillColor=none;align=left;verticalAlign=middle;spacingLeft=4;spacingRight=4;overflow=hidden;points=[[0,0.5],[1,0.5]];portConstraint=eastwest;rotatable=0;whiteSpace=wrap;html=1;labelBackgroundColor=none;fontColor=#5C5C5C;rounded=1;" parent="dNBtrrBop_Eb0bzp6sH0-49" vertex="1">
          <mxGeometry y="90" width="140" height="30" as="geometry" />
        </mxCell>
        <mxCell id="dNBtrrBop_Eb0bzp6sH0-53" value="Type_job&amp;nbsp;(char 1)" style="text;strokeColor=none;fillColor=none;align=left;verticalAlign=middle;spacingLeft=4;spacingRight=4;overflow=hidden;points=[[0,0.5],[1,0.5]];portConstraint=eastwest;rotatable=0;whiteSpace=wrap;html=1;labelBackgroundColor=none;fontColor=#5C5C5C;rounded=1;" parent="dNBtrrBop_Eb0bzp6sH0-49" vertex="1">
          <mxGeometry y="120" width="140" height="30" as="geometry" />
        </mxCell>
        <mxCell id="dNBtrrBop_Eb0bzp6sH0-55" value="Studies&amp;nbsp;(char 100)" style="text;strokeColor=none;fillColor=none;align=left;verticalAlign=middle;spacingLeft=4;spacingRight=4;overflow=hidden;points=[[0,0.5],[1,0.5]];portConstraint=eastwest;rotatable=0;whiteSpace=wrap;html=1;labelBackgroundColor=none;fontColor=#5C5C5C;rounded=1;" parent="dNBtrrBop_Eb0bzp6sH0-49" vertex="1">
          <mxGeometry y="150" width="140" height="30" as="geometry" />
        </mxCell>
        <mxCell id="dNBtrrBop_Eb0bzp6sH0-56" value="City&amp;nbsp;(char 100)" style="text;strokeColor=none;fillColor=none;align=left;verticalAlign=middle;spacingLeft=4;spacingRight=4;overflow=hidden;points=[[0,0.5],[1,0.5]];portConstraint=eastwest;rotatable=0;whiteSpace=wrap;html=1;labelBackgroundColor=none;fontColor=#5C5C5C;rounded=1;" parent="dNBtrrBop_Eb0bzp6sH0-49" vertex="1">
          <mxGeometry y="180" width="140" height="30" as="geometry" />
        </mxCell>
        <mxCell id="dNBtrrBop_Eb0bzp6sH0-57" value="Curriculum (file)" style="text;strokeColor=none;fillColor=none;align=left;verticalAlign=middle;spacingLeft=4;spacingRight=4;overflow=hidden;points=[[0,0.5],[1,0.5]];portConstraint=eastwest;rotatable=0;whiteSpace=wrap;html=1;labelBackgroundColor=none;fontColor=#5C5C5C;rounded=1;" parent="dNBtrrBop_Eb0bzp6sH0-49" vertex="1">
          <mxGeometry y="210" width="140" height="30" as="geometry" />
        </mxCell>
        <mxCell id="dNBtrrBop_Eb0bzp6sH0-58" value="Information&amp;nbsp;(char 200)" style="text;strokeColor=none;fillColor=none;align=left;verticalAlign=middle;spacingLeft=4;spacingRight=4;overflow=hidden;points=[[0,0.5],[1,0.5]];portConstraint=eastwest;rotatable=0;whiteSpace=wrap;html=1;labelBackgroundColor=none;fontColor=#5C5C5C;rounded=1;" parent="dNBtrrBop_Eb0bzp6sH0-49" vertex="1">
          <mxGeometry y="240" width="140" height="30" as="geometry" />
        </mxCell>
        <mxCell id="dNBtrrBop_Eb0bzp6sH0-59" value="ContactForm" style="swimlane;fontStyle=0;childLayout=stackLayout;horizontal=1;startSize=30;horizontalStack=0;resizeParent=1;resizeParentMax=0;resizeLast=0;collapsible=1;marginBottom=0;whiteSpace=wrap;html=1;fillColor=#21C0A5;strokeColor=#006658;labelBackgroundColor=none;fontColor=#5C5C5C;rounded=1;" parent="WIyWlLk6GJQsqaUBKTNV-1" vertex="1">
          <mxGeometry x="600" y="880" width="140" height="90" as="geometry" />
        </mxCell>
        <mxCell id="dNBtrrBop_Eb0bzp6sH0-60" value="Surname&amp;nbsp;(char 100)" style="text;strokeColor=none;fillColor=none;align=left;verticalAlign=middle;spacingLeft=4;spacingRight=4;overflow=hidden;points=[[0,0.5],[1,0.5]];portConstraint=eastwest;rotatable=0;whiteSpace=wrap;html=1;labelBackgroundColor=none;fontColor=#5C5C5C;rounded=1;" parent="dNBtrrBop_Eb0bzp6sH0-59" vertex="1">
          <mxGeometry y="30" width="140" height="30" as="geometry" />
        </mxCell>
        <mxCell id="dNBtrrBop_Eb0bzp6sH0-61" value="Information&amp;nbsp;(char 400)" style="text;strokeColor=none;fillColor=none;align=left;verticalAlign=middle;spacingLeft=4;spacingRight=4;overflow=hidden;points=[[0,0.5],[1,0.5]];portConstraint=eastwest;rotatable=0;whiteSpace=wrap;html=1;labelBackgroundColor=none;fontColor=#5C5C5C;rounded=1;" parent="dNBtrrBop_Eb0bzp6sH0-59" vertex="1">
          <mxGeometry y="60" width="140" height="30" as="geometry" />
        </mxCell>
        <mxCell id="dNBtrrBop_Eb0bzp6sH0-63" value="" style="endArrow=classic;html=1;rounded=1;entryX=1;entryY=0;entryDx=0;entryDy=0;exitX=0;exitY=0;exitDx=0;exitDy=0;labelBackgroundColor=none;strokeColor=#006658;fontColor=default;" parent="WIyWlLk6GJQsqaUBKTNV-1" source="dNBtrrBop_Eb0bzp6sH0-44" target="dNBtrrBop_Eb0bzp6sH0-49" edge="1">
          <mxGeometry width="50" height="50" relative="1" as="geometry">
            <mxPoint x="390" y="830" as="sourcePoint" />
            <mxPoint x="440" y="780" as="targetPoint" />
          </mxGeometry>
        </mxCell>
        <mxCell id="dNBtrrBop_Eb0bzp6sH0-64" value="" style="endArrow=classic;html=1;rounded=1;exitX=1;exitY=0;exitDx=0;exitDy=0;entryX=0;entryY=0;entryDx=0;entryDy=0;labelBackgroundColor=none;strokeColor=#006658;fontColor=default;" parent="WIyWlLk6GJQsqaUBKTNV-1" source="dNBtrrBop_Eb0bzp6sH0-44" target="dNBtrrBop_Eb0bzp6sH0-59" edge="1">
          <mxGeometry width="50" height="50" relative="1" as="geometry">
            <mxPoint x="550" y="930" as="sourcePoint" />
            <mxPoint x="600" y="860" as="targetPoint" />
          </mxGeometry>
        </mxCell>
        <mxCell id="nmYzF3sqAzr96OTuuxgY-4" style="edgeStyle=orthogonalEdgeStyle;rounded=1;orthogonalLoop=1;jettySize=auto;html=1;exitX=0.25;exitY=0;exitDx=0;exitDy=0;strokeColor=#006658;fontColor=#5C5C5C;fillColor=#21C0A5;" edge="1" parent="WIyWlLk6GJQsqaUBKTNV-1" source="dNBtrrBop_Eb0bzp6sH0-65" target="nmYzF3sqAzr96OTuuxgY-0">
          <mxGeometry relative="1" as="geometry" />
        </mxCell>
        <mxCell id="dNBtrrBop_Eb0bzp6sH0-65" value="User" style="swimlane;fontStyle=0;childLayout=stackLayout;horizontal=1;startSize=30;horizontalStack=0;resizeParent=1;resizeParentMax=0;resizeLast=0;collapsible=1;marginBottom=0;whiteSpace=wrap;html=1;fillColor=#21C0A5;strokeColor=#006658;labelBackgroundColor=none;fontColor=#5C5C5C;rounded=1;" parent="WIyWlLk6GJQsqaUBKTNV-1" vertex="1">
          <mxGeometry x="180" y="390" width="140" height="120" as="geometry" />
        </mxCell>
        <mxCell id="dNBtrrBop_Eb0bzp6sH0-66" value="Email (email 254)" style="text;strokeColor=none;fillColor=none;align=left;verticalAlign=middle;spacingLeft=4;spacingRight=4;overflow=hidden;points=[[0,0.5],[1,0.5]];portConstraint=eastwest;rotatable=0;whiteSpace=wrap;html=1;labelBackgroundColor=none;fontColor=#5C5C5C;rounded=1;" parent="dNBtrrBop_Eb0bzp6sH0-65" vertex="1">
          <mxGeometry y="30" width="140" height="30" as="geometry" />
        </mxCell>
        <mxCell id="dNBtrrBop_Eb0bzp6sH0-67" value="Is_staff (boolean)" style="text;strokeColor=none;fillColor=none;align=left;verticalAlign=middle;spacingLeft=4;spacingRight=4;overflow=hidden;points=[[0,0.5],[1,0.5]];portConstraint=eastwest;rotatable=0;whiteSpace=wrap;html=1;labelBackgroundColor=none;fontColor=#5C5C5C;rounded=1;" parent="dNBtrrBop_Eb0bzp6sH0-65" vertex="1">
          <mxGeometry y="60" width="140" height="30" as="geometry" />
        </mxCell>
        <mxCell id="dNBtrrBop_Eb0bzp6sH0-68" value="Type_user (char 3)" style="text;strokeColor=none;fillColor=none;align=left;verticalAlign=middle;spacingLeft=4;spacingRight=4;overflow=hidden;points=[[0,0.5],[1,0.5]];portConstraint=eastwest;rotatable=0;whiteSpace=wrap;html=1;labelBackgroundColor=none;fontColor=#5C5C5C;rounded=1;" parent="dNBtrrBop_Eb0bzp6sH0-65" vertex="1">
          <mxGeometry y="90" width="140" height="30" as="geometry" />
        </mxCell>
        <mxCell id="dNBtrrBop_Eb0bzp6sH0-72" value="1" style="text;html=1;strokeColor=none;fillColor=none;align=center;verticalAlign=middle;whiteSpace=wrap;rounded=1;labelBackgroundColor=none;fontColor=#5C5C5C;" parent="WIyWlLk6GJQsqaUBKTNV-1" vertex="1">
          <mxGeometry x="170" y="370" width="60" height="30" as="geometry" />
        </mxCell>
        <mxCell id="dNBtrrBop_Eb0bzp6sH0-73" value="1" style="text;html=1;strokeColor=none;fillColor=none;align=center;verticalAlign=middle;whiteSpace=wrap;rounded=1;labelBackgroundColor=none;fontColor=#5C5C5C;" parent="WIyWlLk6GJQsqaUBKTNV-1" vertex="1">
          <mxGeometry x="200" y="310" width="60" height="30" as="geometry" />
        </mxCell>
        <mxCell id="dNBtrrBop_Eb0bzp6sH0-74" value="0/N" style="text;html=1;strokeColor=none;fillColor=none;align=center;verticalAlign=middle;whiteSpace=wrap;rounded=1;labelBackgroundColor=none;fontColor=#5C5C5C;" parent="WIyWlLk6GJQsqaUBKTNV-1" vertex="1">
          <mxGeometry x="470" y="705" width="60" height="30" as="geometry" />
        </mxCell>
        <mxCell id="dNBtrrBop_Eb0bzp6sH0-75" value="0/N" style="text;html=1;strokeColor=none;fillColor=none;align=center;verticalAlign=middle;whiteSpace=wrap;rounded=1;labelBackgroundColor=none;fontColor=#5C5C5C;" parent="WIyWlLk6GJQsqaUBKTNV-1" vertex="1">
          <mxGeometry x="620" y="660" width="60" height="30" as="geometry" />
        </mxCell>
        <mxCell id="nmYzF3sqAzr96OTuuxgY-2" style="edgeStyle=orthogonalEdgeStyle;rounded=1;orthogonalLoop=1;jettySize=auto;html=1;exitX=0;exitY=0.5;exitDx=0;exitDy=0;entryX=0.25;entryY=0;entryDx=0;entryDy=0;strokeColor=#006658;fontColor=#5C5C5C;fillColor=#21C0A5;" edge="1" parent="WIyWlLk6GJQsqaUBKTNV-1" source="yz6hyvaZa-Xoh-KUm_AY-15" target="yz6hyvaZa-Xoh-KUm_AY-33">
          <mxGeometry relative="1" as="geometry" />
        </mxCell>
      </root>
    </mxGraphModel>
  </diagram>
</mxfile>
